<?xml version="1.0" standalone="no"?>
<!DOCTYPE svg PUBLIC "-//W3C//DTD SVG 20010904//EN"
 "http://www.w3.org/TR/2001/REC-SVG-20010904/DTD/svg10.dtd">
<svg version="1.0" xmlns="http://www.w3.org/2000/svg"
 width="150.000000pt" height="150.000000pt" viewBox="0 0 290.000000 290.000000"
 preserveAspectRatio="xMidYMid meet">
<metadata>
Created by potrace 1.13, written by Peter Selinger 2001-2015
</metadata>
<g transform="translate(0.000000,290.000000) scale(0.100000,-0.100000)"
fill="#000000" stroke="blue">
<path d="M891 1739 c-137 -13 -274 -53 -406 -119 -230 -114 -369 -268 -420
-465 -20 -79 -20 -243 0 -319 44 -167 162 -294 410 -441 16 -10 16 -13 2 -40
-22 -42 -80 -96 -160 -148 l-68 -44 47 -6 c118 -13 265 36 374 124 54 44 56
45 100 36 25 -5 110 -10 190 -10 123 0 159 4 240 26 325 85 562 305 635 588
20 75 22 207 5 280 -46 201 -233 398 -455 478 -154 55 -329 77 -494 60z"/>
</g>
</svg>
